# xmcd CD database file
#
# Track frame offsets:
#	150
#	15195
#	29272
#	43402
#	54050
#	66080
#	79572
#	93942
#	104707
#	116412
#
# Disc length: 1733 seconds
#
# Revision: 4
# Processed by: cddbd v1.5.1PL0 Copyright (c) Steve Scherf et al.
# Submitted via: CDex 1.51
#
DISCID=7106c30a
DTITLE=Glen Campbell - Unconditional Love
DYEAR=1988
DGENRE=Country
TTITLE0=Unconditional Love
TTITLE1=We Will
TTITLE2=Right Down To The Memories
TTITLE3=Livin' In A House Full Of Love
TTITLE4=Healing Hands Of Time
TTITLE5=Next To You
TTITLE6=Somebody's Doing Me Right
TTITLE7=I'm Gone This Time
TTITLE8=Once A Day
TTITLE9=Light Of A Clear Blue Morning
EXTD=more info\nMillenniumMusicProjectFormat, syntax as follows:\nTitle{Subtitle}[info](Lyricist;Composer;Date,Artist,Location)[info]\ncorrections to: windking3@yahoo.com YEAR: 1988
EXTT0=
EXTT1=
EXTT2=
EXTT3=
EXTT4=
EXTT5=
EXTT6=
EXTT7=
EXTT8=
EXTT9=
PLAYORDER=
